<?xml version="1.0" encoding="utf-8"?>
<!-- Generator: Adobe Illustrator 25.2.3, SVG Export Plug-In . SVG Version: 6.00 Build 0)  -->
<svg version="1.1" id="Layer_1" xmlns="http://www.w3.org/2000/svg" xmlns:xlink="http://www.w3.org/1999/xlink" x="0px" y="0px"
	 viewBox="0 0 186 140" style="enable-background:new 0 0 186 140;" xml:space="preserve">
<style type="text/css">
	.st0{fill:#FFFFFF;}
</style>
<g transform="translate(0.000000,200.000000) scale(0.100000,-0.100000)">
	<path class="st0" d="M485,1880c-60-27-110-54-110-60s41-29,90-50l90-39l-47-1c-44,0-48-2-48-25v-25h155h155v24c0,22-5,25-42,28
		l-43,3l85,36c47,20,85,42,85,49c0,14-208,109-240,109C604,1929,546,1907,485,1880z M742,1854c37-16,68-31,68-34c0-6-181-80-195-80
		c-17,0-185,73-185,80c0,4,42,25,93,47C625,1912,605,1913,742,1854z"/>
	<path class="st0" d="M125,1617l-32-32l-7-286c-9-353-5-381,57-419c31-19,57-20,775-20c808,0,789-1,827,56c17,25,20,44,17,143
		c-2,113-2,116-73,315c-70,199-82,228-114,260c-15,14-81,16-717,16H158L125,1617z M1547,1583c12-10,51-105,91-221
		c72-202,72-204,72-307c0-161,89-145-785-145c-726,0-733,0-759,21l-26,20v305c0,291,1,305,20,324c20,20,33,20,694,20
		C1482,1600,1529,1599,1547,1583z"/>
	<path class="st0" d="M190,1390v-170h255h255v170v170H445H190V1390z M680,1390v-140H450H220v140v140h230h230V1390z"/>
	<path class="st0" d="M432,1471c4-13,18-16,19-4c0,4-5,9-11,12C433,1481,429,1477,432,1471z"/>
	<path class="st0" d="M562,1471c2-7,7-12,11-12c12,1,9,15-3,20C563,1481,559,1477,562,1471z"/>
	<path class="st0" d="M525,1440c-4-6-3-16,3-22s12-6,17,2c4,6,3,16-3,22S530,1448,525,1440z"/>
	<path class="st0" d="M392,1429c2-6,8-10,13-10s11,4,13,10s-4,11-13,11S390,1435,392,1429z"/>
	<path class="st0" d="M356,1402c-3-6-1-14,5-17c15-10,25,3,12,16C366,1408,360,1408,356,1402z"/>
	<path class="st0" d="M485,1401c-7-12,12-24,25-16c11,7,4,25-10,25C495,1410,489,1406,485,1401z"/>
	<path class="st0" d="M320,1355c0-9,5-15,11-13s11,8,11,13s-5,11-11,13S320,1364,320,1355z"/>
	<path class="st0" d="M450,1355c0-9,5-15,11-13s11,8,11,13s-5,11-11,13S450,1364,450,1355z"/>
	<path class="st0" d="M282,1319c2-6,8-10,13-10s11,4,13,10s-4,11-13,11S280,1325,282,1319z"/>
	<path class="st0" d="M412,1319c2-6,8-10,13-10s11,4,13,10s-4,11-13,11S410,1325,412,1319z"/>
	<path class="st0" d="M752,1263l3-298h165h165l3,298l2,297H920H750L752,1263z M1060,1260V990H920H780v270v270h140h140V1260z"/>
	<path class="st0" d="M935,1471c-7-12,12-24,25-16c11,7,4,25-10,25C945,1480,939,1476,935,1471z"/>
	<path class="st0" d="M902,1429c2-6,8-10,13-10s11,4,13,10s-4,11-13,11S900,1435,902,1429z"/>
	<path class="st0" d="M865,1400c-4-6-3-16,3-22s12-6,17,2c4,6,3,16-3,22S870,1408,865,1400z"/>
	<path class="st0" d="M825,1361c-7-12,12-24,25-16c11,7,4,25-10,25C835,1370,829,1366,825,1361z"/>
	<path class="st0" d="M962,1288c2-28,8-34,31-36c25-3,27-1,27,32s-2,36-31,36C961,1320,959,1318,962,1288z"/>
	<path class="st0" d="M966,1172c-3-6-1-14,5-17c15-10,25,3,12,16C976,1178,970,1178,966,1172z"/>
	<path class="st0" d="M925,1131c-7-12,12-24,25-16c11,7,4,25-10,25C935,1140,929,1136,925,1131z"/>
	<path class="st0" d="M892,1091c2-7,7-12,11-12c12,1,9,15-3,20C893,1101,889,1097,892,1091z"/>
	<path class="st0" d="M855,1060c-4-6-3-16,3-22s12-6,17,2c4,6,3,16-3,22S860,1068,855,1060z"/>
	<path class="st0" d="M1150,1390v-170h235c129,0,235,3,235,8c0,4-24,79-53,167l-54,160l-181,3l-182,2V1390z M1542,1390l46-140h-204
		h-204v140v140h158h157L1542,1390z"/>
	<path class="st0" d="M1326,1471c-4-5-2-12,3-15c5-4,12-2,15,3c4,5,2,12-3,15C1336,1478,1329,1476,1326,1471z"/>
	<path class="st0" d="M1456,1471c-4-5-2-12,3-15c5-4,12-2,15,3c4,5,2,12-3,15C1466,1478,1459,1476,1456,1471z"/>
	<path class="st0" d="M1285,1431c-6-11,9-23,19-14c9,9,7,23-3,23C1295,1440,1289,1436,1285,1431z"/>
	<path class="st0" d="M1420,1430c0-5,5-10,10-10c6,0,10,5,10,10c0,6-4,10-10,10C1425,1440,1420,1436,1420,1430z"/>
	<path class="st0" d="M1255,1399c-10-15,3-25,16-12c7,7,7,13,1,17C1266,1407,1258,1405,1255,1399z"/>
	<path class="st0" d="M1385,1399c-10-15,3-25,16-12c7,7,7,13,1,17C1396,1407,1388,1405,1385,1399z"/>
	<path class="st0" d="M1215,1359c-10-15,3-25,16-12c7,7,7,13,1,17C1226,1367,1218,1365,1215,1359z"/>
	<path class="st0" d="M1346,1361c-4-5-2-12,3-15c5-4,12-2,15,3c4,5,2,12-3,15C1356,1368,1349,1366,1346,1361z"/>
	<path class="st0" d="M1305,1321c-6-11,9-23,19-14c9,9,7,23-3,23C1315,1330,1309,1326,1305,1321z"/>
	<path class="st0" d="M220,814c0-25,29-67,63-91l32-23H207H100v-25v-25h840h840v25v25h-122h-123l32,20c32,19,63,66,63,95
		c0,9-9,15-25,15c-14,0-25-6-25-13c0-24-45-57-78-57c-34,0-72,29-72,55c0,11-11,15-40,15c-27,0-40-4-40-13c0-24-45-57-78-57
		c-32,0-72,32-72,57c0,8-12,13-29,13c-28,0-29-1-21-31c11-38,26-57,65-81c29-18,25-18-290-18H605l33,20c32,20,72,74,72,98
		c0,7-12,12-29,12c-22,0-30-6-35-25c-14-56-98-61-131-8c-17,27-26,32-57,33c-31,0-38-4-38-20c0-27-42-52-82-48c-24,2-38,11-53,35
		C263,832,220,843,220,814z M510,725l34-25h-85h-84l30,18c17,11,36,26,44,36c9,11,17,13,21,6C473,755,491,739,510,725z M1455,712
		c16-9,3-11-65-12h-85l38,25c20,14,37,31,37,37c0,7,12,0,28-14C1423,734,1444,718,1455,712z"/>
</g>
</svg>
